<svg width="16" height="16" viewBox="0 0 16 16" fill="none" xmlns="http://www.w3.org/2000/svg">
<path fill-rule="evenodd" clip-rule="evenodd" d="M1.95459 8.00001C1.95459 7.69877 2.1988 7.45456 2.50004 7.45456H13.5C13.8013 7.45456 14.0455 7.69877 14.0455 8.00001C14.0455 8.30126 13.8013 8.54547 13.5 8.54547H2.50004C2.1988 8.54547 1.95459 8.30126 1.95459 8.00001Z" fill="#2C2C45"/>
<path fill-rule="evenodd" clip-rule="evenodd" d="M7.38574 3.11432C7.59875 3.32733 7.59875 3.6727 7.38574 3.88571L3.27143 8.00001L7.38574 12.1143C7.59875 12.3273 7.59875 12.6727 7.38574 12.8857C7.17273 13.0987 6.82736 13.0987 6.61435 12.8857L2.11435 8.38571C1.90134 8.1727 1.90134 7.82733 2.11435 7.61432L6.61435 3.11432C6.82736 2.90131 7.17273 2.90131 7.38574 3.11432Z" fill="#2C2C45"/>
</svg>
