<svg width="16" height="16" viewBox="0 0 16 16" fill="none" xmlns="http://www.w3.org/2000/svg">
<path fill-rule="evenodd" clip-rule="evenodd" d="M8.00004 5.04547C7.19672 5.04547 6.5455 5.69669 6.5455 6.50001C6.5455 7.30334 7.19672 7.95456 8.00004 7.95456C8.80337 7.95456 9.45459 7.30334 9.45459 6.50001C9.45459 5.69669 8.80337 5.04547 8.00004 5.04547ZM5.45459 6.50001C5.45459 5.0942 6.59423 3.95456 8.00004 3.95456C9.40586 3.95456 10.5455 5.0942 10.5455 6.50001C10.5455 7.90583 9.40586 9.04547 8.00004 9.04547C6.59423 9.04547 5.45459 7.90583 5.45459 6.50001Z" fill="#A8A8C8"/>
<path fill-rule="evenodd" clip-rule="evenodd" d="M8.00004 2.04547C6.81863 2.04547 5.68559 2.51479 4.85021 3.35017C4.01482 4.18556 3.5455 5.31859 3.5455 6.50001C3.5455 8.55362 4.69287 10.428 5.91165 11.8296C6.51437 12.5227 7.1185 13.0817 7.57206 13.4672C7.73792 13.6082 7.88311 13.7255 8.00004 13.8173C8.11698 13.7255 8.26217 13.6082 8.42803 13.4672C8.88159 13.0817 9.48572 12.5227 10.0884 11.8296C11.3072 10.428 12.4546 8.55362 12.4546 6.50001C12.4546 5.31859 11.9853 4.18556 11.1499 3.35017C10.3145 2.51479 9.18146 2.04547 8.00004 2.04547ZM8.00004 14.5C7.68725 14.9469 7.6871 14.9468 7.68693 14.9466L7.68649 14.9463L7.68528 14.9455L7.68149 14.9428L7.66859 14.9336C7.65767 14.9258 7.64213 14.9147 7.62229 14.9002C7.58261 14.8712 7.52568 14.829 7.45398 14.7742C7.31063 14.6646 7.10788 14.5044 6.86553 14.2984C6.38159 13.8871 5.73572 13.2898 5.08844 12.5454C3.80722 11.072 2.45459 8.94641 2.45459 6.50001C2.45459 5.02927 3.03884 3.61876 4.07882 2.57879C5.11879 1.53881 6.5293 0.954559 8.00004 0.954559C9.47079 0.954559 10.8813 1.53881 11.9213 2.57879C12.9612 3.61876 13.5455 5.02927 13.5455 6.50001C13.5455 8.94641 12.1929 11.072 10.9116 12.5454C10.2644 13.2898 9.6185 13.8871 9.13456 14.2984C8.89221 14.5044 8.68946 14.6646 8.54611 14.7742C8.47441 14.829 8.41748 14.8712 8.3778 14.9002C8.35796 14.9147 8.34242 14.9258 8.3315 14.9336L8.3186 14.9428L8.31481 14.9455L8.3136 14.9463L8.31316 14.9466C8.31299 14.9468 8.31284 14.9469 8.00004 14.5ZM8.00004 14.5L8.31284 14.9469C8.12503 15.0783 7.87506 15.0783 7.68725 14.9469L8.00004 14.5Z" fill="#A8A8C8"/>
</svg>
