<svg width="170" height="170" viewBox="0 0 170 170" fill="none" xmlns="http://www.w3.org/2000/svg">
<circle cx="85" cy="85" r="85" fill="#ECECF3"/>
<path fill-rule="evenodd" clip-rule="evenodd" d="M47.7858 73.5372H9.38953V86.8757C9.38953 90.1736 12.081 92.8671 15.3762 92.8671H29.1874L37.4257 97.0285L47.7861 92.8671V73.5372H47.7858Z" fill="#545383"/>
<path fill-rule="evenodd" clip-rule="evenodd" d="M41.7987 54.1783H15.3758C12.0805 54.1783 9.3891 56.8718 9.3891 60.1697V70.0809H47.7854V60.1697C47.7854 56.8718 45.094 54.1783 41.7987 54.1783Z" fill="#545383"/>
<path fill-rule="evenodd" clip-rule="evenodd" d="M47.7859 67.0897H9.38959V76.5087H47.7859V67.0897Z" fill="#FF7878"/>
<path fill-rule="evenodd" clip-rule="evenodd" d="M47.7852 92.8659H29.1864V101.421C29.1864 103.476 30.8684 105.151 32.9129 105.151H93.4683C93.4683 99.7725 93.4683 97.0356 89.3535 97.0356L81.1584 97.027C75.9997 97.0185 72.6182 95.6974 70.7291 92.8657H47.7852V92.8659Z" fill="#1D1C48"/>
<path fill-rule="evenodd" clip-rule="evenodd" d="M86.1639 105.155H32.9128C29.79 110.594 27.2797 117.13 29.445 129.631C33.0682 117.302 69.8687 122.223 73.6469 136.451H114.252C115.787 132.972 117.236 129.536 118.505 126.065H107.057C83.904 117.328 91.3485 121.222 86.1639 105.155Z" fill="#545383"/>
<path fill-rule="evenodd" clip-rule="evenodd" d="M89.4513 71.7314C88.6576 75.9099 87.5793 80.0282 86.3717 83.5331L74.6662 88.1196L61.614 83.5331C62.0713 58.8331 71.3016 46.9881 79.1517 43.155C81.9811 41.0006 84.8796 40.1891 84.8796 40.1891C84.8796 40.1891 88.6924 46.2889 88.8909 46.2889C90.3573 49.7768 90.9095 54.3266 90.8146 59.2389L89.4513 71.7314Z" fill="white"/>
<path fill-rule="evenodd" clip-rule="evenodd" d="M61.6144 83.5361H86.3724C92.0747 84.1576 99.0879 88.5004 99.0879 101.951V116.049L93.4693 119.396L86.1656 116.049V105.154C86.1656 99.7754 86.1656 97.0385 82.0509 97.0385L73.8558 97.0299C68.6971 97.0214 65.3156 95.7003 63.4265 92.8686C61.9683 90.6846 61.4076 87.6023 61.6144 83.5361Z" fill="#FF7878"/>
<path fill-rule="evenodd" clip-rule="evenodd" d="M73.6477 136.446C73.6477 123.678 63.5289 113.507 51.0465 113.507C40.8931 113.507 32.3012 120.242 29.4458 129.626C28.8591 131.551 28.5141 133.597 28.4538 135.721C28.4278 136.55 28.9974 136.446 29.7737 136.446C44.3954 136.446 59.026 136.438 73.6477 136.446Z" fill="#FF7878"/>
<path fill-rule="evenodd" clip-rule="evenodd" d="M67.9626 136.451H33.5602C34.0518 145.723 41.5654 153.096 50.7614 153.096C59.9574 153.096 67.4711 145.723 67.9626 136.451Z" fill="#1D1C48"/>
<path fill-rule="evenodd" clip-rule="evenodd" d="M155.323 132.779L125.726 139.59C127.607 147.766 135.759 152.877 143.928 150.995C152.106 149.113 157.204 140.955 155.323 132.779Z" fill="#1D1C48"/>
<path fill-rule="evenodd" clip-rule="evenodd" d="M157.54 124.485C153.356 118.398 146.093 114.867 138.502 115.627C125.113 118.459 120.757 126.462 119.886 136.442C119.903 137.798 120.05 139.162 120.343 140.526C120.429 140.906 120.679 140.75 121.094 140.655L125.726 139.593L155.323 132.782L157.54 132.272L160.637 131.556C160.042 128.948 158.972 126.566 157.54 124.485Z" fill="#FF7878"/>
<path fill-rule="evenodd" clip-rule="evenodd" d="M138.528 115.587L126.571 74.2157L121.188 71.807L115.167 74.2157C123.078 96.1446 120.869 111.451 115.529 126.059C114.253 129.53 112.803 132.966 111.276 136.445H119.877L138.528 115.587Z" fill="#FF7878"/>
<path fill-rule="evenodd" clip-rule="evenodd" d="M101.502 27.8297L87.4757 24.8425C86.0524 24.9719 81.9805 28.3909 81.9805 30.532L84.9653 45.7094C86.2075 46.0807 87.5274 46.2878 88.8904 46.2878C96.3609 46.2878 102.417 40.2187 102.417 32.742C102.417 31.0068 102.098 29.3489 101.502 27.8297Z" fill="#FFECE4"/>
<path fill-rule="evenodd" clip-rule="evenodd" d="M106.032 27.8312C106.032 18.1791 98.3892 10.3659 88.9518 10.3659C79.5145 10.3659 71.8715 18.1791 71.8715 27.8312C71.8715 34.2025 74.4595 39.8661 79.1523 43.1554C80.8258 44.3382 82.7755 45.2103 84.9665 45.711V30.5333C84.9665 28.3922 86.0533 27.9606 87.4769 27.8309H101.503H106.032V27.8312Z" fill="#FF7878"/>
<path fill-rule="evenodd" clip-rule="evenodd" d="M99.0875 116.049H86.1649V124.191C86.1649 125.935 87.1138 126.064 88.5113 126.064H107.058C107.429 117.897 102.486 116.049 99.0875 116.049Z" fill="#1D1C48"/>
<path fill-rule="evenodd" clip-rule="evenodd" d="M32.9132 105.155H86.1643V109.843H42.4108C38.8482 109.843 37.1573 111.38 35.7683 114.496C34.5693 117.199 34.5432 118.079 34 121.343C31.9555 123.717 30.3854 126.532 29.4451 129.631C27.2801 117.129 29.7905 110.594 32.9132 105.155Z" fill="#302F66"/>
<path fill-rule="evenodd" clip-rule="evenodd" d="M129.065 61.194L112.925 66.5294C112.131 67.2372 113.028 74.4548 113.563 74.2217H126.572H132.326V62.3423C132.326 60.0027 131.109 60.5205 129.065 61.194Z" fill="#545383"/>
<path fill-rule="evenodd" clip-rule="evenodd" d="M105.402 74.2208H106.756H113.562C117.945 74.2208 118.074 66.9515 112.924 66.5285L105.402 65.9241L103.383 70.1977L105.402 74.2208Z" fill="#FFECE4"/>
<path fill-rule="evenodd" clip-rule="evenodd" d="M90.8144 59.2427L88.1144 56.9202C81.3514 51.0927 72.8023 60.9262 81.8429 66.7968L89.4514 71.7351L93.2816 74.2216H105.402V65.9248L97.8711 65.3118L90.8144 59.2427Z" fill="#FF7878"/>
</svg>
