<svg width="16" height="16" viewBox="0 0 16 16" fill="none" xmlns="http://www.w3.org/2000/svg">
<path fill-rule="evenodd" clip-rule="evenodd" d="M7.39487 1.1431C7.57278 1.02032 7.78384 0.954559 8.00001 0.954559C8.21618 0.954559 8.42723 1.02032 8.60515 1.1431C8.78171 1.26496 8.91734 1.43725 8.99434 1.6374L10.3668 5.09368L14.0427 5.33224C15.0375 5.39681 15.3842 6.64438 14.6538 7.25231L11.8297 9.60284C11.8296 9.60288 11.8297 9.6028 11.8297 9.60284C11.8295 9.60305 11.8292 9.60343 11.8291 9.60371C11.829 9.60404 11.829 9.60441 11.8291 9.60475L11.8294 9.60614L12.7402 13.1888C12.9708 14.0958 11.9916 14.9208 11.136 14.3787L8.00001 12.3918L5.08688 14.2375C4.15064 14.8306 3.07147 13.9297 3.32595 12.9287L4.17057 9.60614L4.17092 9.60475C4.17101 9.60441 4.171 9.60405 4.17089 9.60371C4.1708 9.60343 4.17065 9.60318 4.17045 9.60297C4.1704 9.60293 4.1705 9.60301 4.17045 9.60297L1.34621 7.25231L1.69515 6.83307M1.69515 6.83307L1.34621 7.25231C0.615812 6.64438 0.962525 5.39681 1.9573 5.33224L5.63318 5.09368L7.00567 1.6374C7.08267 1.43725 7.2183 1.26496 7.39487 1.1431M7.98379 12.3815L8.2757 11.9208L7.98279 12.3809C7.98312 12.3811 7.98345 12.3814 7.98379 12.3815ZM8.5686 11.4607C8.56848 11.4606 8.56873 11.4607 8.5686 11.4607L11.6757 13.4292L10.7725 9.87631C10.7725 9.87607 10.7724 9.87583 10.7723 9.87558C10.7213 9.67657 10.7275 9.46721 10.79 9.27151C10.8527 9.07558 10.9693 8.90131 11.1266 8.76873L11.1292 8.76654L13.9492 6.41938L10.277 6.18105C10.0745 6.16659 9.88027 6.09488 9.71694 5.97429C9.55426 5.8542 9.42889 5.69055 9.3553 5.50224L8.00001 2.08927L6.64471 5.50225C6.57112 5.69054 6.44575 5.8542 6.28308 5.97429C6.11974 6.09488 5.9255 6.16657 5.723 6.18104L5.71945 6.1813L2.05076 6.41938L4.8708 8.76655L4.87341 8.76873C5.03068 8.90131 5.14735 9.07558 5.20999 9.27151C5.27254 9.46715 5.27868 9.67645 5.22772 9.87541C5.22764 9.87571 5.22757 9.87601 5.22749 9.87631L4.38323 13.1974C4.37493 13.2301 4.37886 13.2512 4.38419 13.2655C4.39051 13.2825 4.40264 13.2992 4.41941 13.3119C4.43619 13.3247 4.45168 13.329 4.46156 13.3297C4.468 13.3301 4.48064 13.3301 4.50304 13.316L7.43141 11.4607C7.43122 11.4608 7.43159 11.4605 7.43141 11.4607C7.6012 11.3527 7.7988 11.295 8.00001 11.295C8.20129 11.295 8.39877 11.3527 8.5686 11.4607Z" fill="#A8A8C8"/>
</svg>
